<svg width="57" height="57" viewBox="0 0 57 57" fill="none" xmlns="http://www.w3.org/2000/svg">
<path d="M16.055 11.4951L11.78 7.2439L8.43125 10.5926L12.6825 14.8439L16.055 11.4951ZM9.5 24.9376H2.375V29.6876H9.5V24.9376ZM30.875 1.3064H26.125V8.31265H30.875V1.3064V1.3064ZM48.5687 10.5926L45.22 7.2439L40.9687 11.4951L44.3175 14.8439L48.5687 10.5926ZM40.945 43.1301L45.1962 47.4051L48.545 44.0564L44.27 39.8051L40.945 43.1301ZM47.5 24.9376V29.6876H54.625V24.9376H47.5ZM28.5 13.0626C20.6387 13.0626 14.25 19.4514 14.25 27.3126C14.25 35.1739 20.6387 41.5626 28.5 41.5626C36.3612 41.5626 42.75 35.1739 42.75 27.3126C42.75 19.4514 36.3612 13.0626 28.5 13.0626ZM26.125 53.3189H30.875V46.3126H26.125V53.3189ZM8.43125 44.0327L11.78 47.3814L16.0312 43.1064L12.6825 39.7576L8.43125 44.0327Z" fill="#999999"/>
</svg>
